<?xml version="1.0" encoding="utf-8"?>
<!-- Generator: Adobe Illustrator 19.0.0, SVG Export Plug-In . SVG Version: 6.00 Build 0)  -->
<svg version="1.1" id="图层_1" xmlns="http://www.w3.org/2000/svg" xmlns:xlink="http://www.w3.org/1999/xlink" x="0px" y="0px"
	 viewBox="0 0 100 85" style="enable-background:new 0 0 100 85;" xml:space="preserve">
<style type="text/css">
	.st0{fill:#FFFFFF;}
</style>
<g id="c47b58e1-299a-4b5e-aa19-1b546ed013c2.psd">
	<g id="形状_1">
		<g id="XMLID_88_">
			<path id="XMLID_89_" class="st0" d="M26.6,34.8c4.3,0,6.4-2.6,6.4-8.4v-5.2c0-5.8-2.1-8.4-6.4-8.4c-4.3,0-6.4,2.6-6.4,8.4v5.2
				C20.2,32.2,22.3,34.8,26.6,34.8z M44.3,50c-0.9,0-3.1,0.1-3.8,0.2v10.4c0.7,0,3.1,0.1,3.8,0.1c4.7,0,6.5-1.7,6.5-5.2V55
				C50.7,51.4,48.6,50,44.3,50z M19.8,50.1c-0.4,0-0.6,0.2-0.7,0.7l-3.1,12.9h7.7l-3.1-12.9C20.3,50.2,20.2,50.1,19.8,50.1z
				 M98.1,29c-1.7-6.5-4.7-12-8.8-16.4l-10,0c-2.6,0-3.5,0.9-3.5,3.8v4.4h12c0.5,0,0.9,0.4,0.9,0.9v3.2c0,0.5-0.4,0.9-0.9,0.9h-12
				v5.3c0,2.9,0.9,3.8,3.5,3.8h9c0.5,0,0.9,0.4,0.9,0.9v2.8c0,0.6-0.2,0.8-0.9,0.9c-1.4,0.2-3.1,0.6-8.4,0.6c-5.8,0-10.2-1.5-10.2-9
				V16.4c0-7.5,4.5-9,10.2-9c1.2,0,2.3,0,3.2,0.1c-2-1.3-4.1-2.5-6.4-3.4C65.7-0.7,53.5-1.3,40.3,2.3c-5.2,1.4-9.9,3.1-14.2,5.1
				c0.2,0,0.3,0,0.5,0c7.3,0,12.5,4.1,12.5,13.7v5.2c0,9.7-5.3,13.7-12.5,13.7c-7.3,0-12.5-4.1-12.5-13.7v-5.2c0-3,0.5-5.5,1.4-7.4
				c-3.2,2.4-6,5.1-8.4,8.1c-7,8.9-8.8,19.5-5.5,31.8c1.6,6,3.9,11.2,7,15.5l5.1-19.6c1-4.1,4.2-4.4,6.1-4.4c1.9,0,5,0.4,6.1,4.4
				L33,76.7c0,0.1,0,0.2,0,0.2c0,0.4-0.3,0.7-0.8,0.7h-4.6c-0.4,0-0.7-0.3-0.8-0.7l-2-8.3h-10l-1.4,5.8c2.8,2.7,6.1,4.8,9.7,6.5
				c10.7,4.9,23.6,5.3,38.6,1.3c7.1-1.9,13.3-4.4,18.5-7.5V56.3c0-0.3,0-0.4-0.1-0.4c0,0-0.1,0.1-0.2,0.3l-4.2,8.4
				c-0.3,0.5-0.8,0.7-1.4,0.7h-4.4c-0.6,0-1.1-0.3-1.4-0.7l-4.2-8.4c-0.1-0.1-0.2-0.3-0.2-0.3c-0.1,0-0.1,0.1-0.1,0.4v20.5
				c0,0.4-0.3,0.9-0.7,0.9h-4.4c-0.4,0-0.7-0.2-0.7-0.7V46.7c0-1,0.8-1.8,1.7-1.8h3.6c0.7,0,1.3,0.4,1.6,1.1l6.6,13.5
				c0.2,0.4,0.3,0.6,0.5,0.6c0.2,0,0.3-0.2,0.5-0.6L79.1,46c0.3-0.6,0.9-1.1,1.6-1.1h3.6c1,0,1.7,0.8,1.7,1.8v24
				c3.1-2.5,5.7-5.2,7.8-8.3C100.2,53.3,101.7,42.1,98.1,29z M56.7,55.4c0,7.7-5.8,10.2-12.5,10.2c-1.1,0-2.9-0.1-3.8-0.2v11.4
				c0,0.5-0.3,0.9-0.8,0.9h-4.3c-0.5,0-0.9-0.4-0.9-0.9v-30c0-0.9,0.5-1.2,1.4-1.3c2.2-0.3,5.3-0.6,8.5-0.6
				c6.7,0,12.5,2.4,12.5,10.1V55.4z M66.3,38.3c0,1-0.8,1.8-1.7,1.8h-4.4c-1,0-2,0-2.6-1.6l-9.6-21.4c-0.1-0.3-0.3-0.4-0.4-0.4
				c-0.1,0-0.2,0.1-0.2,0.4v22.2c0,0.5-0.3,0.9-0.8,0.9h-3.7c-0.5,0-0.9-0.4-0.9-0.9V9.1c0-1,0.8-1.8,1.7-1.8h4.7
				c0.9,0,1.4,0.3,1.9,1.4l10.1,22.6c0.1,0.2,0.2,0.4,0.3,0.4c0.1,0,0.2-0.1,0.2-0.4V8.2c0-0.5,0.3-0.8,0.8-0.8h3.7
				c0.5,0,0.8,0.4,0.8,0.8V38.3z"/>
		</g>
	</g>
</g>
</svg>
